<svg xmlns="http://www.w3.org/2000/svg" xmlns:xlink="http://www.w3.org/1999/xlink" width="1920" zoomAndPan="magnify" viewBox="0 0 1440 809.999993" height="1080" preserveAspectRatio="xMidYMid meet" version="1.0"><path stroke-linecap="round" transform="matrix(1.770606, 0, 0, 1.771309, 396.37903, 0.521471)" fill-opacity="1" fill="#4fa0ca" fill-rule="nonzero" stroke-linejoin="round" d="M 359.099729 346.800515 L 359.099729 347.499592 C 359.099729 348.69927 359.000452 349.898947 358.799691 351.10083 C 358.59893 354.000785 358.001059 356.799298 357.100943 359.600015 C 356.399382 362.400733 355.300712 365.000769 354.100558 367.499362 C 352.900404 370.099398 351.499488 372.500958 349.699257 374.699632 C 346.500317 379.200628 342.399055 383.099579 337.699922 385.900297 C 336.799806 386.500136 335.800413 387.000736 334.80102 387.499132 C 334.399498 387.799051 333.900905 387.999733 333.400105 388.098971 C 332.400712 388.599571 331.500596 388.899491 330.498997 389.300853 C 329.400326 389.700011 328.400933 389.900692 327.399334 390.200611 C 326.900741 390.399087 326.300664 390.500531 325.799864 390.599769 C 324.698987 390.899688 323.600317 391.10037 322.400163 391.199608 C 320.89997 391.400289 319.499055 391.499527 318.001068 391.499527 L 47.699439 391.499527 C 46.199246 391.499527 44.800537 391.400289 43.300344 391.199608 C 42.10019 391.10037 40.999314 390.899688 39.900643 390.599769 C 39.300566 390.500531 38.799766 390.399087 38.298967 390.200611 C 37.200296 389.900692 36.200903 389.600773 35.199304 389.300853 C 33.99915 388.899491 32.900479 388.500333 31.799603 387.900495 C 31.601048 387.799051 31.400287 387.699813 31.100248 387.600575 C 29.999371 387.000736 28.999978 386.500136 28.099863 385.900297 C 23.40073 383.000341 19.20019 379.099184 15.899766 374.600394 C 12.500065 370.099398 10.099757 365.000769 8.500286 359.500777 C 7.300132 355.59962 6.600778 351.599225 6.400017 347.400354 L 6.400017 346.599834 C 6.099978 338.100649 7.999487 329.299339 12.500065 321.100072 L 62.500605 229.999566 C 69.999362 216.399546 83.300335 207.999599 97.600701 207.999599 L 168.299488 207.999599 L 168.299488 292.199754 C 173.000827 293.399432 177.799237 293.900033 182.699131 293.900033 C 187.499748 293.900033 192.399642 293.300194 197.100981 292.199754 L 197.100981 207.999599 L 268.000529 207.999599 C 282.300895 207.999599 295.599662 216.399546 303.100625 229.999566 L 352.999681 321.100072 C 357.500259 329.400782 359.399768 338.199887 359.099729 346.800515 Z M 359.099729 346.800515 " stroke="#000000" stroke-width="13.044" stroke-opacity="1" stroke-miterlimit="10"/><path stroke-linecap="round" transform="matrix(1.770606, 0, 0, 1.771309, 396.37903, 0.521471)" fill-opacity="1" fill="#2e58a6" fill-rule="nonzero" stroke-linejoin="round" d="M 246.90076 292.298992 C 246.90076 307.200133 218.20075 319.300556 182.800615 319.300556 C 147.40048 319.300556 118.598986 307.200133 118.598986 292.298992 C 118.598986 279.499493 139.899516 268.799428 168.400971 266.199392 L 168.400971 292.298992 C 173.100104 293.500875 177.900721 293.999271 182.800615 293.999271 C 187.599025 293.999271 192.498919 293.399432 197.200258 292.298992 L 197.200258 266.199392 C 225.699507 268.799428 246.90076 279.499493 246.90076 292.298992 Z M 246.90076 292.298992 " stroke="#000000" stroke-width="13.044" stroke-opacity="1" stroke-miterlimit="10"/><path stroke-linecap="round" transform="matrix(1.770606, 0, 0, 1.771309, 396.37903, 0.521471)" fill-opacity="1" fill="#e5e5e5" fill-rule="nonzero" stroke-linejoin="round" d="M 197.200258 132.100152 L 197.200258 292.298992 C 192.498919 293.500875 187.700509 293.999271 182.800615 293.999271 C 177.999998 293.999271 173.100104 293.399432 168.400971 292.298992 L 168.400971 132.100152 C 173.000827 133.500511 177.799237 134.199588 182.800615 134.199588 C 187.899064 134.199588 192.600403 133.500511 197.200258 132.100152 Z M 197.200258 132.100152 " stroke="#000000" stroke-width="13.044" stroke-opacity="1" stroke-miterlimit="10"/><path stroke-linecap="round" transform="matrix(1.770606, 0, 0, 1.771309, 396.37903, 0.521471)" fill-opacity="1" fill="#ff0000" fill-rule="nonzero" stroke-linejoin="round" d="M 239.799112 70.400565 C 239.799112 100.099198 221.699729 124.99912 197.200258 132.100152 C 192.600403 133.500511 187.799786 134.199588 182.800615 134.199588 C 177.799237 134.199588 173.000827 133.500511 168.400971 132.100152 C 143.899295 124.99912 125.799911 100.200641 125.799911 70.400565 C 125.799911 35.100497 151.300981 6.500098 182.699131 6.500098 C 214.300249 6.500098 239.799112 35.199735 239.799112 70.400565 Z M 239.799112 70.400565 " stroke="#000000" stroke-width="13.044" stroke-opacity="1" stroke-miterlimit="10"/><path stroke-linecap="round" transform="matrix(1.770606, 0, 0, 1.771309, 396.37903, 0.521471)" fill="none" stroke-linejoin="round" d="M 145.000171 70.400565 C 145.000171 46.901001 162.000884 27.900227 182.899892 27.900227 " stroke="#ffffff" stroke-width="8.684" stroke-opacity="1" stroke-miterlimit="10"/><path stroke-linecap="round" transform="matrix(1.770606, 0, 0, 1.771309, 396.37903, 0.521471)" fill-opacity="1" fill="#2e58a6" fill-rule="nonzero" stroke-linejoin="round" d="M 359.099729 346.699072 C 358.400375 370.099398 341.600423 391.400289 318.001068 391.400289 L 47.699439 391.400289 C 24.100084 391.400289 7.300132 370.099398 6.600778 346.699072 L 6.499294 346.699072 L 6.499294 405.000309 C 6.499294 429.99947 24.600884 450.199921 46.799323 450.199921 L 318.700423 450.199921 C 341.000346 450.199921 359.000452 429.99947 359.000452 405.000309 Z M 359.099729 346.699072 " stroke="#000000" stroke-width="13.044" stroke-opacity="1" stroke-miterlimit="10"/></svg>