<svg xmlns="http://www.w3.org/2000/svg" xmlns:xlink="http://www.w3.org/1999/xlink" width="1920" zoomAndPan="magnify" viewBox="0 0 1440 809.999993" height="1080" preserveAspectRatio="xMidYMid meet" version="1.0"><defs><clipPath id="9d9980a971"><path d="M 498.769531 0 L 940 0 L 940 810 L 498.769531 810 Z M 498.769531 0 " clip-rule="nonzero"/></clipPath></defs><path fill="#ee9d53" d="M 524.820312 283.132812 C 544.652344 259.335938 579.652344 255.246094 604.4375 273.835938 L 661.339844 316.511719 L 572.851562 430.285156 L 521.105469 352.664062 C 506.808594 331.222656 508.320312 302.933594 524.820312 283.132812 Z M 524.820312 283.132812 " fill-opacity="1" fill-rule="nonzero"/><path fill="#ee9d53" d="M 806.71875 13.121094 C 831.152344 13.121094 850.960938 32.929688 850.960938 57.363281 L 850.960938 392.363281 L 762.472656 367.078125 L 762.472656 57.363281 C 762.472656 32.929688 782.28125 13.121094 806.71875 13.121094 Z M 806.71875 13.121094 " fill-opacity="1" fill-rule="nonzero"/><path fill="#ee9d53" d="M 573.140625 386.390625 L 636.300781 309.195312 C 651.011719 291.214844 676.082031 285.574219 697.082031 295.519531 L 871.3125 378.050781 C 889.636719 386.726562 901 405.511719 900.191406 425.769531 L 888.886719 708.398438 L 926.8125 796.886719 L 673.984375 796.886719 L 673.984375 792.242188 C 673.984375 762.839844 662.300781 734.640625 641.511719 713.851562 L 630.605469 702.941406 C 609.8125 682.152344 598.132812 653.953125 598.132812 624.550781 L 598.132812 594.625 L 596.648438 590.90625 L 578.523438 567.605469 C 568.136719 554.25 565.277344 536.703125 570.496094 520.816406 L 556.328125 457.066406 C 550.796875 432.175781 556.996094 406.125 573.140625 386.390625 Z M 573.140625 386.390625 " fill-opacity="1" fill-rule="nonzero"/><g clip-path="url(#9d9980a971)"><path fill="#2e1e19" d="M 498.773438 320.433594 C 498.773438 304 504.585938 287.816406 515.078125 275.050781 C 539.351562 246.101562 581.953125 241.042969 612.039062 263.671875 L 643.136719 287.058594 C 660.960938 276.3125 683.210938 275.050781 702.550781 284.152344 L 749.832031 306.527344 L 749.832031 57.363281 C 749.832031 26.011719 775.367188 0.476562 806.71875 0.476562 C 838.066406 0.476562 863.605469 26.011719 863.605469 57.363281 L 863.605469 360.378906 L 876.75 366.574219 C 899.757812 377.445312 913.917969 400.832031 912.777344 426.242188 L 901.65625 705.996094 L 938.441406 791.957031 C 941.222656 798.277344 938.1875 805.734375 931.742188 808.515625 C 930.222656 809.148438 928.453125 809.527344 926.8125 809.527344 C 921.878906 809.527344 917.203125 806.621094 915.179688 801.816406 L 877.257812 713.328125 C 876.5 711.683594 876.246094 709.789062 876.246094 707.890625 L 887.496094 425.230469 C 888.128906 409.933594 879.660156 396.027344 865.878906 389.453125 L 691.679688 306.90625 C 678.28125 300.585938 662.351562 302.605469 650.722656 312.59375 C 649.332031 313.605469 647.816406 315.121094 646.042969 317.144531 L 582.835938 394.511719 C 577.910156 400.453125 574.113281 407.152344 571.460938 414.738281 C 566.65625 427.253906 565.773438 441.03125 568.679688 454.304688 L 570.828125 464.164062 L 640.988281 385.28125 C 658.558594 365.433594 687.003906 358.609375 711.652344 368.46875 L 762.726562 388.949219 C 792.8125 400.957031 818.222656 421.5625 836.171875 448.617188 C 840.089844 454.429688 838.449219 462.269531 832.632812 466.058594 C 826.816406 469.980469 818.980469 468.335938 815.1875 462.519531 C 800.015625 439.894531 778.652344 422.574219 753.371094 412.460938 L 702.300781 391.980469 C 687.507812 386.039062 670.441406 390.085938 659.824219 401.96875 L 621.394531 445.328125 C 624.554688 444.949219 627.714844 444.824219 631 445.074219 L 716.332031 450.765625 C 765.378906 454.050781 809.5 483.378906 831.496094 527.371094 L 849.570312 563.652344 C 852.730469 569.972656 850.203125 577.558594 844.007812 580.59375 C 837.6875 583.753906 830.105469 581.222656 827.070312 575.03125 L 808.867188 538.621094 C 790.914062 502.722656 754.761719 478.703125 714.6875 476.046875 L 629.359375 470.359375 C 615.707031 469.347656 602.558594 477.3125 597.121094 490.078125 L 583.597656 521.554688 C 578.160156 534.324219 580.058594 548.988281 588.527344 559.859375 L 650.847656 640.007812 L 654.640625 636.847656 C 676.382812 619.402344 679.921875 587.546875 662.605469 565.800781 L 651.480469 551.894531 C 647.816406 547.34375 647.816406 540.773438 651.480469 536.09375 C 655.273438 531.542969 661.722656 530.152344 667.03125 532.808594 L 742.878906 570.730469 C 748.3125 573.386719 750.96875 579.582031 749.324219 585.523438 L 748.566406 588.050781 C 734.789062 636.59375 748.3125 688.929688 784.089844 724.703125 C 789.019531 729.632812 789.019531 737.726562 784.089844 742.65625 C 781.5625 745.054688 778.402344 746.320312 775.113281 746.320312 C 771.828125 746.320312 768.667969 745.054688 766.136719 742.65625 C 725.8125 702.203125 709.378906 643.925781 722.273438 588.683594 L 695.601562 575.28125 C 704.324219 604.105469 695.347656 636.71875 670.441406 656.566406 L 656.539062 667.691406 C 654.007812 669.839844 650.597656 670.851562 647.183594 670.347656 C 643.894531 669.964844 640.863281 668.324219 638.714844 665.542969 L 611.027344 630.019531 C 612.417969 654.164062 622.277344 676.792969 639.597656 693.984375 L 650.46875 704.855469 C 673.730469 728.242188 686.625 759.214844 686.625 792.210938 L 686.625 796.886719 C 686.625 803.839844 680.933594 809.527344 673.984375 809.527344 C 667.03125 809.527344 661.339844 803.839844 661.339844 796.886719 L 661.339844 792.210938 C 661.339844 766.042969 651.101562 741.390625 632.519531 722.808594 L 621.648438 711.9375 C 598.386719 688.550781 585.492188 657.578125 585.492188 624.585938 L 585.492188 597.152344 L 568.554688 575.410156 C 556.292969 559.605469 552.371094 539.253906 557.429688 520.292969 L 543.902344 459.738281 C 540.488281 443.8125 541.375 427.503906 545.796875 412.460938 L 510.65625 359.746094 C 502.816406 348.117188 498.773438 334.464844 498.773438 320.433594 Z M 838.320312 57.363281 C 838.320312 39.917969 824.164062 25.761719 806.71875 25.761719 C 789.273438 25.761719 775.113281 39.917969 775.113281 57.363281 L 775.113281 318.410156 L 838.320312 348.496094 Z M 531.640625 345.714844 L 558.3125 385.660156 C 559.957031 383.257812 561.472656 380.730469 563.371094 378.457031 L 624.050781 304.25 L 596.871094 283.898438 C 577.527344 269.359375 550.097656 272.648438 534.546875 291.230469 C 527.847656 299.445312 524.054688 309.8125 524.054688 320.433594 C 524.054688 329.40625 526.710938 338.128906 531.640625 345.714844 Z M 531.640625 345.714844 " fill-opacity="1" fill-rule="nonzero"/></g></svg>