<svg xmlns="http://www.w3.org/2000/svg" xmlns:xlink="http://www.w3.org/1999/xlink" width="1920" zoomAndPan="magnify" viewBox="0 0 1440 809.999993" height="1080" preserveAspectRatio="xMidYMid meet" version="1.0"><defs><clipPath id="0c00c12f58"><path d="M 790 558 L 1110.605469 558 L 1110.605469 809.816406 L 790 809.816406 Z M 790 558 " clip-rule="nonzero"/></clipPath><clipPath id="31cded2376"><path d="M 336.203125 558 L 657 558 L 657 809.816406 L 336.203125 809.816406 Z M 336.203125 558 " clip-rule="nonzero"/></clipPath></defs><path fill="#568b34" d="M 776.460938 35.671875 C 778.035156 48.453125 779.390625 63.726562 780.621094 79.496094 C 772.339844 48.601562 725.511719 54.296875 725.511719 81.070312 C 725.511719 52.625 725.511719 34.730469 725.511719 33.339844 C 725.511719 5.394531 772.058594 -0.0429688 776.460938 35.671875 " fill-opacity="1" fill-rule="nonzero"/><path fill="#000000" d="M 750.199219 15.324219 C 759.277344 15.324219 769.886719 20.714844 771.804688 36.257812 C 772.667969 43.320312 773.511719 51.40625 774.402344 61.371094 C 766.605469 55.101562 756.324219 53.015625 747.347656 54.199219 C 740.527344 55.101562 734.671875 57.601562 730.210938 61.273438 L 730.210938 33.339844 C 730.210938 21.777344 739.84375 15.910156 748.796875 15.363281 C 749.261719 15.335938 749.726562 15.324219 750.199219 15.324219 Z M 720.816406 81.070312 L 730.210938 81.070312 C 730.210938 70.617188 739.429688 64.726562 748.578125 63.519531 C 759.582031 62.066406 772.363281 66.8125 776.085938 80.703125 L 785.304688 79.117188 C 783.792969 59.808594 782.5 46.222656 781.121094 35.097656 C 778.5 13.75 762.703125 5.089844 748.226562 5.980469 C 734.613281 6.824219 720.816406 16.484375 720.816406 33.339844 L 720.816406 81.070312 " fill-opacity="1" fill-rule="nonzero"/><path fill="#568b34" d="M 780.621094 79.496094 C 781 80.863281 781.71875 81.875 781.925781 83.398438 C 786.148438 114.371094 789 159.476562 791.941406 192.054688 C 799.871094 231.296875 819.933594 323.972656 831.023438 375.933594 C 835.167969 395.390625 838.085938 409.273438 838.574219 412.246094 C 839.242188 416.261719 843.804688 433.542969 849.648438 455.074219 C 850.171875 457.414062 850.550781 459.148438 850.710938 459.964844 C 851.34375 463.417969 855.222656 476.871094 860.40625 494.265625 C 870.382812 530.296875 879.984375 564.4375 879.984375 564.4375 L 819.945312 724.898438 C 819.945312 724.898438 725.511719 716.613281 725.511719 631.71875 C 725.511719 631.71875 725.511719 222.695312 725.511719 81.070312 C 725.511719 54.296875 772.339844 48.601562 780.621094 79.496094 " fill-opacity="1" fill-rule="nonzero"/><path fill="#000000" d="M 875.054688 564.230469 L 816.847656 719.761719 C 809.554688 718.664062 792.003906 715.222656 774.695312 705.867188 C 745.175781 689.914062 730.210938 664.96875 730.210938 631.71875 L 730.210938 81.058594 C 730.210938 70.617188 739.429688 64.726562 748.578125 63.519531 C 759.582031 62.066406 772.363281 66.824219 776.085938 80.703125 C 776.328125 81.570312 776.621094 82.289062 776.863281 82.875 C 777.097656 83.425781 777.230469 83.753906 777.265625 84.035156 C 780.195312 105.441406 782.414062 133.167969 784.5625 159.964844 C 785.488281 171.578125 786.367188 182.542969 787.257812 192.484375 L 787.34375 192.996094 C 793.113281 221.574219 805.175781 277.769531 815.800781 327.339844 C 819.726562 345.613281 823.410156 362.773438 826.421875 376.910156 C 829.375 390.792969 833.375 409.625 833.949219 413.015625 C 834.570312 416.773438 838.21875 430.898438 845.085938 456.195312 C 845.746094 459.125 845.988281 460.332031 846.085938 460.832031 C 846.464844 462.917969 847.902344 468.808594 855.90625 495.605469 C 864.578125 526.953125 873.09375 557.277344 875.054688 564.230469 Z M 823.09375 729.886719 L 884.921875 564.644531 L 884.507812 563.15625 C 884.410156 562.816406 874.789062 528.613281 864.945312 493.007812 C 857.648438 468.613281 855.6875 461.125 855.320312 459.125 C 855.160156 458.257812 854.808594 456.597656 854.234375 454.035156 L 854.1875 453.839844 C 845.816406 423.054688 843.597656 413.808594 843.207031 411.480469 C 842.746094 408.710938 840.402344 397.453125 835.609375 374.960938 C 832.597656 360.808594 828.914062 343.648438 824.996094 325.363281 C 814.398438 275.964844 802.382812 219.988281 796.601562 191.386719 C 795.710938 181.554688 794.84375 170.710938 793.929688 159.21875 C 791.769531 132.289062 789.539062 104.441406 786.585938 82.753906 C 786.378906 81.253906 785.890625 80.09375 785.539062 79.242188 C 785.378906 78.863281 785.234375 78.53125 785.171875 78.277344 C 779.988281 58.992188 761.921875 52.285156 747.347656 54.199219 C 731.476562 56.296875 720.816406 67.09375 720.816406 81.058594 L 720.816406 631.71875 C 720.816406 668.277344 738.003906 696.816406 770.511719 714.285156 C 794.6875 727.277344 818.53125 729.496094 819.53125 729.582031 L 823.09375 729.886719 " fill-opacity="1" fill-rule="nonzero"/><path fill="#000000" d="M 816.128906 434.105469 C 816.347656 434.105469 816.605469 434.082031 816.835938 434.058594 C 818.800781 433.703125 820.082031 431.960938 819.714844 430.179688 C 819.457031 429.082031 795.308594 320.242188 788.097656 279.171875 C 780.964844 238.371094 761.777344 221.378906 726.792969 223.820312 C 724.769531 223.976562 723.292969 225.5625 723.4375 227.367188 C 723.609375 229.160156 725.34375 230.550781 727.367188 230.394531 C 758.238281 227.878906 774.375 243.019531 780.914062 280.195312 C 788.125 321.398438 812.300781 430.359375 812.53125 431.472656 C 812.898438 433.03125 814.410156 434.105469 816.128906 434.105469 " fill-opacity="1" fill-rule="nonzero"/><path fill="#0946e6" d="M 882.863281 565.792969 L 794.136719 797.058594 C 792.390625 801.609375 795.757812 806.511719 800.636719 806.511719 L 1100.332031 806.511719 C 1104.1875 806.511719 1107.296875 803.390625 1107.296875 799.546875 L 1107.296875 637.625 C 1107.296875 634.621094 1105.371094 631.953125 1102.515625 631.011719 L 891.535156 561.667969 C 888.007812 560.511719 884.191406 562.328125 882.863281 565.792969 " fill-opacity="1" fill-rule="nonzero"/><g clip-path="url(#0c00c12f58)"><path fill="#000000" d="M 889.351562 564.621094 C 889.742188 564.621094 890.121094 564.679688 890.496094 564.804688 L 1101.480469 634.148438 C 1102.980469 634.648438 1103.992188 636.039062 1103.992188 637.625 L 1103.992188 799.546875 C 1103.992188 801.558594 1102.359375 803.207031 1100.332031 803.207031 L 800.636719 803.207031 C 799.417969 803.207031 798.308594 802.621094 797.625 801.621094 C 796.929688 800.609375 796.785156 799.375 797.222656 798.242188 L 885.949219 566.976562 C 886.496094 565.523438 887.886719 564.621094 889.351562 564.621094 Z M 800.636719 809.816406 L 1100.332031 809.816406 C 1105.992188 809.816406 1110.605469 805.207031 1110.605469 799.546875 L 1110.605469 637.625 C 1110.605469 633.171875 1107.761719 629.253906 1103.542969 627.878906 L 892.558594 558.535156 C 887.363281 556.8125 881.738281 559.484375 879.777344 564.609375 L 791.050781 795.875 C 789.84375 799.023438 790.257812 802.570312 792.171875 805.363281 C 794.089844 808.144531 797.246094 809.816406 800.636719 809.816406 " fill-opacity="1" fill-rule="nonzero"/></g><path fill="#568b34" d="M 670.34375 35.671875 C 668.769531 48.453125 667.414062 63.726562 666.171875 79.496094 C 674.464844 48.601562 721.292969 54.296875 721.292969 81.070312 C 721.292969 52.625 721.292969 34.730469 721.292969 33.339844 C 721.292969 5.394531 674.734375 -0.0429688 670.34375 35.671875 " fill-opacity="1" fill-rule="nonzero"/><path fill="#000000" d="M 694.605469 53.882812 C 686.933594 53.882812 678.820312 56.210938 672.40625 61.371094 C 673.292969 51.40625 674.136719 43.320312 675.003906 36.257812 C 677.015625 19.910156 688.664062 14.789062 698.007812 15.363281 C 706.960938 15.910156 716.597656 21.777344 716.597656 33.339844 L 716.597656 61.273438 C 712.132812 57.601562 706.277344 55.101562 699.457031 54.199219 C 697.875 53.992188 696.25 53.882812 694.605469 53.882812 Z M 716.597656 81.070312 L 725.988281 81.070312 L 725.988281 33.339844 C 725.988281 16.484375 712.191406 6.824219 698.582031 5.980469 C 684.089844 5.117188 668.304688 13.75 665.683594 35.097656 C 664.304688 46.222656 663.011719 59.796875 661.5 79.117188 L 670.710938 80.703125 C 674.441406 66.8125 687.210938 62.066406 698.226562 63.519531 C 707.375 64.726562 716.597656 70.617188 716.597656 81.070312 " fill-opacity="1" fill-rule="nonzero"/><path fill="#568b34" d="M 666.171875 79.496094 C 665.804688 80.863281 665.085938 81.875 664.878906 83.398438 C 660.65625 114.371094 657.804688 159.476562 654.863281 192.054688 C 646.921875 231.296875 626.871094 323.972656 615.78125 375.933594 C 611.636719 395.390625 608.722656 409.273438 608.21875 412.246094 C 607.5625 416.261719 603 433.542969 597.15625 455.074219 C 596.632812 457.414062 596.253906 459.148438 596.097656 459.964844 C 595.460938 463.417969 591.582031 476.871094 586.398438 494.265625 C 576.421875 530.296875 566.820312 564.4375 566.820312 564.4375 L 626.859375 724.898438 C 626.859375 724.898438 721.292969 716.613281 721.292969 631.71875 C 721.292969 631.71875 721.292969 222.695312 721.292969 81.070312 C 721.292969 54.296875 674.464844 48.601562 666.171875 79.496094 " fill-opacity="1" fill-rule="nonzero"/><path fill="#000000" d="M 694.410156 63.261719 C 695.703125 63.261719 696.96875 63.347656 698.226562 63.519531 C 707.375 64.726562 716.597656 70.617188 716.597656 81.058594 L 716.597656 631.71875 C 716.597656 664.96875 701.628906 689.914062 672.097656 705.867188 C 654.804688 715.222656 637.25 718.664062 629.957031 719.761719 L 571.75 564.230469 C 573.714844 557.277344 582.226562 526.941406 590.925781 495.507812 C 596.902344 475.492188 600.109375 464.113281 600.71875 460.820312 C 600.792969 460.417969 601.035156 459.257812 601.71875 456.195312 C 608.597656 430.886719 612.234375 416.761719 612.855469 413.015625 C 613.429688 409.625 617.429688 390.792969 620.382812 376.910156 C 623.40625 362.726562 627.101562 345.515625 631.03125 327.179688 C 641.652344 277.660156 653.691406 221.539062 659.460938 192.996094 L 659.535156 192.484375 C 660.4375 182.542969 661.316406 171.578125 662.242188 159.964844 C 664.390625 133.167969 666.609375 105.453125 669.539062 84.035156 C 669.574219 83.753906 669.707031 83.425781 669.941406 82.875 C 670.183594 82.289062 670.476562 81.570312 670.710938 80.703125 C 674.015625 68.398438 684.429688 63.261719 694.410156 63.261719 Z M 623.710938 729.886719 L 627.273438 729.582031 C 628.273438 729.496094 652.121094 727.277344 676.296875 714.285156 C 708.800781 696.816406 725.988281 668.277344 725.988281 631.71875 L 725.988281 81.058594 C 725.988281 67.09375 715.328125 56.296875 699.457031 54.199219 C 684.871094 52.285156 666.816406 58.992188 661.632812 78.277344 C 661.574219 78.53125 661.425781 78.863281 661.269531 79.242188 C 660.914062 80.09375 660.425781 81.253906 660.21875 82.765625 C 657.265625 104.441406 655.035156 132.289062 652.875 159.21875 C 651.960938 170.710938 651.09375 181.554688 650.203125 191.386719 C 644.421875 219.953125 632.433594 275.867188 621.84375 325.207031 C 617.917969 343.539062 614.222656 360.773438 611.195312 374.960938 C 606.402344 397.453125 604.050781 408.710938 603.597656 411.480469 C 603.207031 413.808594 600.988281 423.042969 592.621094 453.839844 L 592.570312 454.035156 C 592.011719 456.539062 591.644531 458.246094 591.484375 459.109375 C 591.105469 461.125 589.144531 468.625 581.898438 492.921875 C 572.019531 528.613281 562.394531 562.816406 562.296875 563.15625 L 561.882812 564.644531 L 623.710938 729.886719 " fill-opacity="1" fill-rule="nonzero"/><path fill="#000000" d="M 630.675781 434.105469 C 630.457031 434.105469 630.199219 434.082031 629.96875 434.058594 C 628.003906 433.703125 626.710938 431.960938 627.089844 430.179688 C 627.347656 429.082031 651.496094 320.242188 658.707031 279.171875 C 665.828125 238.371094 685.027344 221.378906 720.011719 223.820312 C 722.035156 223.976562 723.511719 225.5625 723.367188 227.367188 C 723.195312 229.160156 721.464844 230.550781 719.4375 230.394531 C 688.554688 227.878906 672.429688 243.019531 665.890625 280.195312 C 658.683594 321.398438 634.507812 430.359375 634.273438 431.472656 C 633.910156 433.03125 632.394531 434.105469 630.675781 434.105469 " fill-opacity="1" fill-rule="nonzero"/><path fill="#0946e6" d="M 563.941406 565.792969 L 652.667969 797.058594 C 654.414062 801.609375 651.046875 806.511719 646.167969 806.511719 L 346.460938 806.511719 C 342.617188 806.511719 339.507812 803.390625 339.507812 799.546875 L 339.507812 637.625 C 339.507812 634.621094 341.433594 631.953125 344.289062 631.011719 L 555.269531 561.667969 C 558.796875 560.511719 562.613281 562.328125 563.941406 565.792969 " fill-opacity="1" fill-rule="nonzero"/><g clip-path="url(#31cded2376)"><path fill="#000000" d="M 560.855469 566.976562 L 649.582031 798.242188 C 650.023438 799.375 649.875 800.609375 649.179688 801.621094 C 648.496094 802.621094 647.386719 803.207031 646.167969 803.207031 L 346.460938 803.207031 C 344.445312 803.207031 342.8125 801.558594 342.8125 799.546875 L 342.8125 637.625 C 342.8125 636.039062 343.824219 634.648438 345.324219 634.148438 L 556.308594 564.804688 C 558.160156 564.195312 560.160156 565.144531 560.855469 566.976562 Z M 346.460938 809.816406 L 646.167969 809.816406 C 649.558594 809.816406 652.71875 808.144531 654.632812 805.363281 C 656.546875 802.570312 656.960938 799.023438 655.753906 795.875 L 567.027344 564.609375 C 565.066406 559.484375 559.441406 556.828125 554.234375 558.535156 L 343.265625 627.878906 C 339.042969 629.253906 336.203125 633.171875 336.203125 637.625 L 336.203125 799.546875 C 336.203125 805.207031 340.8125 809.816406 346.460938 809.816406 " fill-opacity="1" fill-rule="nonzero"/></g></svg>