<svg xmlns="http://www.w3.org/2000/svg" xmlns:xlink="http://www.w3.org/1999/xlink" width="1920" zoomAndPan="magnify" viewBox="0 0 1440 809.999993" height="1080" preserveAspectRatio="xMidYMid meet" version="1.0"><defs><clipPath id="a2501d08be"><path d="M 68 558 L 389.054688 558 L 389.054688 809.816406 L 68 809.816406 Z M 68 558 " clip-rule="nonzero"/></clipPath></defs><path fill="#ee9d53" d="M 54.910156 35.671875 C 56.484375 48.453125 57.839844 63.726562 59.070312 79.496094 C 50.789062 48.601562 3.960938 54.296875 3.960938 81.070312 C 3.960938 52.625 3.960938 34.730469 3.960938 33.339844 C 3.960938 5.394531 50.507812 -0.0429688 54.910156 35.671875 " fill-opacity="1" fill-rule="nonzero"/><path fill="#000000" d="M 28.648438 15.324219 C 37.726562 15.324219 48.335938 20.714844 50.25 36.257812 C 51.117188 43.320312 51.960938 51.40625 52.851562 61.371094 C 45.054688 55.101562 34.773438 53.015625 25.796875 54.199219 C 18.976562 55.101562 13.121094 57.601562 8.65625 61.273438 L 8.65625 33.339844 C 8.65625 21.777344 18.292969 15.910156 27.246094 15.363281 C 27.710938 15.335938 28.175781 15.324219 28.648438 15.324219 Z M -0.734375 81.070312 L 8.65625 81.070312 C 8.65625 70.617188 17.878906 64.726562 27.027344 63.519531 C 38.03125 62.066406 50.8125 66.8125 54.53125 80.703125 L 63.753906 79.117188 C 62.242188 59.808594 60.949219 46.222656 59.570312 35.097656 C 56.949219 13.75 41.152344 5.089844 26.671875 5.980469 C 13.0625 6.824219 -0.734375 16.484375 -0.734375 33.339844 L -0.734375 81.070312 " fill-opacity="1" fill-rule="nonzero"/><path fill="#ee9d53" d="M 59.070312 79.496094 C 59.449219 80.863281 60.167969 81.875 60.375 83.398438 C 64.597656 114.371094 67.449219 159.476562 70.390625 192.054688 C 78.320312 231.296875 98.382812 323.972656 109.472656 375.933594 C 113.617188 395.390625 116.535156 409.273438 117.023438 412.246094 C 117.691406 416.261719 122.253906 433.542969 128.097656 455.074219 C 128.621094 457.414062 129 459.148438 129.15625 459.964844 C 129.792969 463.417969 133.671875 476.871094 138.855469 494.265625 C 148.832031 530.296875 158.433594 564.4375 158.433594 564.4375 L 98.394531 724.898438 C 98.394531 724.898438 3.960938 716.613281 3.960938 631.71875 C 3.960938 631.71875 3.960938 222.695312 3.960938 81.070312 C 3.960938 54.296875 50.789062 48.601562 59.070312 79.496094 " fill-opacity="1" fill-rule="nonzero"/><path fill="#000000" d="M 153.503906 564.230469 L 95.296875 719.761719 C 88.003906 718.664062 70.449219 715.222656 53.140625 705.867188 C 23.625 689.914062 8.65625 664.96875 8.65625 631.71875 L 8.65625 81.058594 C 8.65625 70.617188 17.878906 64.726562 27.027344 63.519531 C 38.03125 62.066406 50.8125 66.824219 54.53125 80.703125 C 54.777344 81.570312 55.070312 82.289062 55.3125 82.875 C 55.546875 83.425781 55.679688 83.753906 55.714844 84.035156 C 58.644531 105.441406 60.863281 133.167969 63.011719 159.964844 C 63.9375 171.578125 64.816406 182.542969 65.707031 192.484375 L 65.792969 192.996094 C 71.5625 221.574219 83.625 277.769531 94.25 327.339844 C 98.175781 345.613281 101.859375 362.773438 104.871094 376.910156 C 107.824219 390.792969 111.824219 409.625 112.398438 413.015625 C 113.019531 416.773438 116.667969 430.898438 123.535156 456.195312 C 124.195312 459.125 124.4375 460.332031 124.535156 460.832031 C 124.914062 462.917969 126.351562 468.808594 134.355469 495.605469 C 143.027344 526.953125 151.539062 557.277344 153.503906 564.230469 Z M 101.542969 729.886719 L 163.371094 564.644531 L 162.957031 563.15625 C 162.859375 562.816406 153.234375 528.613281 143.394531 493.007812 C 136.097656 468.613281 134.132812 461.125 133.769531 459.125 C 133.609375 458.257812 133.257812 456.597656 132.683594 454.035156 L 132.632812 453.839844 C 124.265625 423.054688 122.046875 413.808594 121.65625 411.480469 C 121.191406 408.710938 118.851562 397.453125 114.058594 374.960938 C 111.042969 360.808594 107.359375 343.648438 103.445312 325.363281 C 92.847656 275.964844 80.832031 219.988281 75.050781 191.386719 C 74.160156 181.554688 73.292969 170.710938 72.378906 159.21875 C 70.21875 132.289062 67.988281 104.441406 65.035156 82.753906 C 64.828125 81.253906 64.339844 80.09375 63.984375 79.242188 C 63.828125 78.863281 63.679688 78.53125 63.621094 78.277344 C 58.4375 58.992188 40.371094 52.285156 25.796875 54.199219 C 9.925781 56.296875 -0.734375 67.09375 -0.734375 81.058594 L -0.734375 631.71875 C -0.734375 668.277344 16.453125 696.816406 48.957031 714.285156 C 73.132812 727.277344 96.980469 729.496094 97.980469 729.582031 L 101.542969 729.886719 " fill-opacity="1" fill-rule="nonzero"/><path fill="#000000" d="M 94.578125 434.105469 C 94.796875 434.105469 95.054688 434.082031 95.285156 434.058594 C 97.25 433.703125 98.53125 431.960938 98.164062 430.179688 C 97.90625 429.082031 73.757812 320.242188 66.546875 279.171875 C 59.414062 238.371094 40.226562 221.378906 5.242188 223.820312 C 3.21875 223.976562 1.742188 225.5625 1.886719 227.367188 C 2.058594 229.160156 3.789062 230.550781 5.816406 230.394531 C 36.6875 227.878906 52.824219 243.019531 59.363281 280.195312 C 66.570312 321.398438 90.746094 430.359375 90.980469 431.472656 C 91.34375 433.03125 92.859375 434.105469 94.578125 434.105469 " fill-opacity="1" fill-rule="nonzero"/><path fill="#2e1e19" d="M 161.3125 565.792969 L 72.585938 797.058594 C 70.839844 801.609375 74.207031 806.511719 79.085938 806.511719 L 378.78125 806.511719 C 382.636719 806.511719 385.746094 803.390625 385.746094 799.546875 L 385.746094 637.625 C 385.746094 634.621094 383.820312 631.953125 380.964844 631.011719 L 169.984375 561.667969 C 166.457031 560.511719 162.640625 562.328125 161.3125 565.792969 " fill-opacity="1" fill-rule="nonzero"/><g clip-path="url(#a2501d08be)"><path fill="#000000" d="M 167.800781 564.621094 C 168.191406 564.621094 168.570312 564.679688 168.945312 564.804688 L 379.929688 634.148438 C 381.429688 634.648438 382.441406 636.039062 382.441406 637.625 L 382.441406 799.546875 C 382.441406 801.558594 380.808594 803.207031 378.78125 803.207031 L 79.085938 803.207031 C 77.867188 803.207031 76.757812 802.621094 76.074219 801.621094 C 75.378906 800.609375 75.234375 799.375 75.671875 798.242188 L 164.398438 566.976562 C 164.945312 565.523438 166.335938 564.621094 167.800781 564.621094 Z M 79.085938 809.816406 L 378.78125 809.816406 C 384.441406 809.816406 389.054688 805.207031 389.054688 799.546875 L 389.054688 637.625 C 389.054688 633.171875 386.210938 629.253906 381.992188 627.878906 L 171.007812 558.535156 C 165.8125 556.8125 160.1875 559.484375 158.226562 564.609375 L 69.5 795.875 C 68.292969 799.023438 68.707031 802.570312 70.621094 805.363281 C 72.535156 808.144531 75.695312 809.816406 79.085938 809.816406 " fill-opacity="1" fill-rule="nonzero"/></g><path fill="#000000" d="M -26.945312 53.882812 C -34.621094 53.882812 -42.730469 56.210938 -49.148438 61.371094 C -48.257812 51.40625 -47.414062 43.320312 -46.546875 36.257812 C -44.535156 19.910156 -32.886719 14.789062 -23.542969 15.363281 C -14.589844 15.910156 -4.953125 21.777344 -4.953125 33.339844 L -4.953125 61.273438 C -9.417969 57.601562 -15.273438 55.101562 -22.09375 54.199219 C -23.679688 53.992188 -25.300781 53.882812 -26.945312 53.882812 Z M -4.953125 81.070312 L 4.4375 81.070312 L 4.4375 33.339844 C 4.4375 16.484375 -9.359375 6.824219 -22.96875 5.980469 C -37.460938 5.117188 -53.246094 13.75 -55.867188 35.097656 C -57.246094 46.222656 -58.539062 59.796875 -60.050781 79.117188 L -50.84375 80.703125 C -47.109375 66.8125 -34.339844 62.066406 -23.324219 63.519531 C -14.175781 64.726562 -4.953125 70.617188 -4.953125 81.070312 " fill-opacity="1" fill-rule="nonzero"/><path fill="#000000" d="M -27.140625 63.261719 C -25.847656 63.261719 -24.582031 63.347656 -23.324219 63.519531 C -14.175781 64.726562 -4.953125 70.617188 -4.953125 81.058594 L -4.953125 631.71875 C -4.953125 664.96875 -19.921875 689.914062 -49.453125 705.867188 C -66.746094 715.222656 -84.300781 718.664062 -91.59375 719.761719 L -149.800781 564.230469 C -147.835938 557.277344 -139.324219 526.941406 -130.625 495.507812 C -124.648438 475.492188 -121.441406 464.113281 -120.832031 460.820312 C -120.757812 460.417969 -120.515625 459.257812 -119.832031 456.195312 C -112.953125 430.886719 -109.316406 416.761719 -108.695312 413.015625 C -108.121094 409.625 -104.121094 390.792969 -101.167969 376.910156 C -98.144531 362.726562 -94.449219 345.515625 -90.519531 327.179688 C -79.898438 277.660156 -67.859375 221.539062 -62.089844 192.996094 L -62.015625 192.484375 C -61.113281 182.542969 -60.234375 171.578125 -59.308594 159.964844 C -57.160156 133.167969 -54.941406 105.453125 -52.011719 84.035156 C -51.976562 83.753906 -51.84375 83.425781 -51.609375 82.875 C -51.367188 82.289062 -51.074219 81.570312 -50.84375 80.703125 C -47.535156 68.398438 -37.121094 63.261719 -27.140625 63.261719 Z M -97.839844 729.886719 L -94.277344 729.582031 C -93.277344 729.496094 -69.429688 727.277344 -45.253906 714.285156 C -12.75 696.816406 4.4375 668.277344 4.4375 631.71875 L 4.4375 81.058594 C 4.4375 67.09375 -6.222656 56.296875 -22.09375 54.199219 C -36.679688 52.285156 -54.734375 58.992188 -59.917969 78.277344 C -59.976562 78.53125 -60.125 78.863281 -60.28125 79.242188 C -60.636719 80.09375 -61.125 81.253906 -61.332031 82.765625 C -64.285156 104.441406 -66.515625 132.289062 -68.675781 159.21875 C -69.589844 170.710938 -70.457031 181.554688 -71.347656 191.386719 C -77.128906 219.953125 -89.117188 275.867188 -99.707031 325.207031 C -103.632812 343.539062 -107.328125 360.773438 -110.355469 374.960938 C -115.148438 397.453125 -117.503906 408.710938 -117.953125 411.480469 C -118.34375 413.808594 -120.5625 423.042969 -128.929688 453.839844 L -128.980469 454.035156 C -129.542969 456.539062 -129.90625 458.246094 -130.066406 459.109375 C -130.445312 461.125 -132.40625 468.625 -139.652344 492.921875 C -149.53125 528.613281 -159.15625 562.816406 -159.253906 563.15625 L -159.667969 564.644531 L -97.839844 729.886719 " fill-opacity="1" fill-rule="nonzero"/><path fill="#000000" d="M -90.875 434.105469 C -91.09375 434.105469 -91.351562 434.082031 -91.582031 434.058594 C -93.546875 433.703125 -94.839844 431.960938 -94.460938 430.179688 C -94.203125 429.082031 -70.054688 320.242188 -62.84375 279.171875 C -55.722656 238.371094 -36.523438 221.378906 -1.539062 223.820312 C 0.484375 223.976562 1.960938 225.5625 1.816406 227.367188 C 1.644531 229.160156 -0.0859375 230.550781 -2.113281 230.394531 C -32.996094 227.878906 -49.121094 243.019531 -55.660156 280.195312 C -62.867188 321.398438 -87.042969 430.359375 -87.277344 431.472656 C -87.640625 433.03125 -89.15625 434.105469 -90.875 434.105469 " fill-opacity="1" fill-rule="nonzero"/></svg>