<svg width="222" height="135" viewBox="0 0 222 135" fill="none" xmlns="http://www.w3.org/2000/svg">
<path fill-rule="evenodd" clip-rule="evenodd" d="M111 132.812C172.027 132.812 221.5 103.193 221.5 66.6558C221.5 30.119 172.027 0.5 111 0.5C49.9725 0.5 0.5 30.119 0.5 66.6558C0.5 83.9159 11.5406 99.6322 29.6242 111.411L23.3869 134L49.9489 121.806C67.44 128.76 88.4298 132.812 111 132.812Z" fill="white"/>
<path d="M29.6242 111.411L30.1062 111.545L30.2035 111.192L29.8971 110.993L29.6242 111.411ZM23.3869 134L22.905 133.867L22.619 134.903L23.5956 134.454L23.3869 134ZM49.9489 121.806L50.1336 121.342L49.9347 121.262L49.7402 121.352L49.9489 121.806ZM221 66.6558C221 84.679 208.795 101.082 188.878 113.006C168.972 124.924 141.439 132.312 111 132.312V133.312C141.589 133.312 169.306 125.89 189.392 113.864C209.469 101.844 222 85.1694 222 66.6558H221ZM111 1C141.439 1 168.972 8.38761 188.878 20.3056C208.795 32.2296 221 48.6325 221 66.6558H222C222 48.1422 209.469 31.4672 189.392 19.4476C169.306 7.42187 141.589 0 111 0V1ZM1 66.6558C1 48.6325 13.2048 32.2296 33.1215 20.3056C53.0281 8.38761 80.5611 1 111 1V0C80.4114 0 52.6944 7.42187 32.6079 19.4476C12.5314 31.4672 0 48.1422 0 66.6558H1ZM29.8971 110.993C11.8936 99.2655 1 83.6846 1 66.6558H0C0 84.1472 11.1875 99.999 29.3513 111.83L29.8971 110.993ZM23.8689 134.133L30.1062 111.545L29.1423 111.278L22.905 133.867L23.8689 134.133ZM49.7402 121.352L23.1783 133.546L23.5956 134.454L50.1575 122.261L49.7402 121.352ZM111 132.312C88.4877 132.312 67.5612 128.27 50.1336 121.342L49.7641 122.271C67.3188 129.25 88.3718 133.312 111 133.312V132.312Z" fill="white"/>
</svg>
