<svg width="36" height="15" viewBox="0 0 36 15" fill="none" xmlns="http://www.w3.org/2000/svg">
<path d="M35.7071 8.07088C36.0976 7.68036 36.0976 7.04719 35.7071 6.65667L29.3431 0.292704C28.9526 -0.0978202 28.3195 -0.0978203 27.9289 0.292704C27.5384 0.683228 27.5384 1.31639 27.9289 1.70692L33.5858 7.36377L27.9289 13.0206C27.5384 13.4112 27.5384 14.0443 27.9289 14.4348C28.3195 14.8254 28.9526 14.8254 29.3431 14.4348L35.7071 8.07088ZM1 6.36377C0.447715 6.36377 4.82823e-08 6.81148 0 7.36377C-4.82823e-08 7.91605 0.447715 8.36377 1 8.36377L1 6.36377ZM35 6.36377L1 6.36377L1 8.36377L35 8.36377L35 6.36377Z" fill="white"/>
</svg>
