<svg xmlns="http://www.w3.org/2000/svg" xmlns:xlink="http://www.w3.org/1999/xlink" width="1920" zoomAndPan="magnify" viewBox="0 0 1440 809.999993" height="1080" preserveAspectRatio="xMidYMid meet" version="1.0"><defs><clipPath id="b1cc33fb2a"><path d="M 483.074219 0.226562 L 957.074219 0.226562 L 957.074219 809.789062 L 483.074219 809.789062 Z M 483.074219 0.226562 " clip-rule="nonzero"/></clipPath></defs><g clip-path="url(#b1cc33fb2a)"><path fill="#18cdea" d="M 955.042969 607.085938 C 952.515625 626.800781 944.15625 689.15625 887.640625 745.792969 C 849.742188 783.769531 796.582031 807.441406 726.496094 809.628906 C 656.414062 811.824219 601.871094 791.519531 561.675781 755.988281 C 502.488281 703.667969 489.996094 643.132812 485.730469 621.765625 C 465.519531 520.523438 565.167969 326.527344 632.152344 172.488281 C 648.511719 134.859375 673.484375 75.453125 701.167969 0.226562 C 730.265625 76.558594 757.488281 135.867188 776.148438 172.175781 C 906.152344 425.109375 969.609375 493.582031 955.042969 607.085938 " fill-opacity="1" fill-rule="nonzero"/></g><path fill="#cbf1f5" d="M 675.996094 172.230469 C 670.945312 170.683594 656.304688 217.664062 608.546875 329.070312 C 589.863281 372.660156 567.875 423.730469 545.65625 496.039062 C 534.554688 532.164062 528.636719 556.6875 530.402344 588.074219 C 531.546875 608.488281 538.09375 670.074219 579.96875 698.207031 C 587.308594 703.140625 602.046875 712.734375 620.914062 710.28125 C 623.34375 709.96875 640.96875 707.460938 649.464844 695.84375 C 665.894531 673.386719 639.851562 628.234375 634.875 618.9375 C 572.859375 503.0625 689.402344 176.3125 675.996094 172.230469 " fill-opacity="1" fill-rule="nonzero"/></svg>