<svg xmlns="http://www.w3.org/2000/svg" xmlns:xlink="http://www.w3.org/1999/xlink" width="1920" zoomAndPan="magnify" viewBox="0 0 1440 809.999993" height="1080" preserveAspectRatio="xMidYMid meet" version="1.0"><defs><clipPath id="f8c348e522"><path d="M 1050.941406 558 L 1372 558 L 1372 809.816406 L 1050.941406 809.816406 Z M 1050.941406 558 " clip-rule="nonzero"/></clipPath></defs><path fill="#ee9d53" d="M 1385.082031 35.671875 C 1383.507812 48.453125 1382.152344 63.726562 1380.921875 79.496094 C 1389.203125 48.601562 1436.03125 54.296875 1436.03125 81.070312 C 1436.03125 52.625 1436.03125 34.730469 1436.03125 33.339844 C 1436.03125 5.394531 1389.484375 -0.0429688 1385.082031 35.671875 " fill-opacity="1" fill-rule="nonzero"/><path fill="#000000" d="M 1411.34375 15.324219 C 1402.265625 15.324219 1391.65625 20.714844 1389.742188 36.257812 C 1388.875 43.320312 1388.03125 51.40625 1387.140625 61.371094 C 1394.9375 55.101562 1405.21875 53.015625 1414.195312 54.199219 C 1421.015625 55.101562 1426.871094 57.601562 1431.335938 61.273438 L 1431.335938 33.339844 C 1431.335938 21.777344 1421.699219 15.910156 1412.746094 15.363281 C 1412.28125 15.335938 1411.816406 15.324219 1411.34375 15.324219 Z M 1440.726562 81.070312 L 1431.335938 81.070312 C 1431.335938 70.617188 1422.113281 64.726562 1412.964844 63.519531 C 1401.960938 62.066406 1389.179688 66.8125 1385.460938 80.703125 L 1376.238281 79.117188 C 1377.75 59.808594 1379.042969 46.222656 1380.421875 35.097656 C 1383.042969 13.75 1398.839844 5.089844 1413.320312 5.980469 C 1426.929688 6.824219 1440.726562 16.484375 1440.726562 33.339844 L 1440.726562 81.070312 " fill-opacity="1" fill-rule="nonzero"/><path fill="#ee9d53" d="M 1380.921875 79.496094 C 1380.542969 80.863281 1379.824219 81.875 1379.617188 83.398438 C 1375.394531 114.371094 1372.542969 159.476562 1369.601562 192.054688 C 1361.671875 231.296875 1341.609375 323.972656 1330.519531 375.933594 C 1326.375 395.390625 1323.457031 409.273438 1322.972656 412.246094 C 1322.300781 416.261719 1317.738281 433.542969 1311.894531 455.074219 C 1311.371094 457.414062 1310.992188 459.148438 1310.835938 459.964844 C 1310.199219 463.417969 1306.320312 476.871094 1301.136719 494.265625 C 1291.160156 530.296875 1281.558594 564.4375 1281.558594 564.4375 L 1341.597656 724.898438 C 1341.597656 724.898438 1436.03125 716.613281 1436.03125 631.71875 C 1436.03125 631.71875 1436.03125 222.695312 1436.03125 81.070312 C 1436.03125 54.296875 1389.203125 48.601562 1380.921875 79.496094 " fill-opacity="1" fill-rule="nonzero"/><path fill="#000000" d="M 1286.488281 564.230469 L 1344.695312 719.761719 C 1351.988281 718.664062 1369.542969 715.222656 1386.851562 705.867188 C 1416.367188 689.914062 1431.335938 664.96875 1431.335938 631.71875 L 1431.335938 81.058594 C 1431.335938 70.617188 1422.113281 64.726562 1412.964844 63.519531 C 1401.960938 62.066406 1389.179688 66.824219 1385.460938 80.703125 C 1385.214844 81.570312 1384.921875 82.289062 1384.679688 82.875 C 1384.445312 83.425781 1384.3125 83.753906 1384.277344 84.035156 C 1381.347656 105.441406 1379.128906 133.167969 1376.980469 159.964844 C 1376.054688 171.578125 1375.175781 182.542969 1374.285156 192.484375 L 1374.199219 192.996094 C 1368.429688 221.574219 1356.367188 277.769531 1345.742188 327.339844 C 1341.816406 345.613281 1338.132812 362.773438 1335.121094 376.910156 C 1332.167969 390.792969 1328.167969 409.625 1327.59375 413.015625 C 1326.972656 416.773438 1323.324219 430.898438 1316.457031 456.195312 C 1315.796875 459.125 1315.554688 460.332031 1315.457031 460.832031 C 1315.078125 462.917969 1313.640625 468.808594 1305.636719 495.605469 C 1296.964844 526.953125 1288.453125 557.277344 1286.488281 564.230469 Z M 1338.449219 729.886719 L 1276.621094 564.644531 L 1277.035156 563.15625 C 1277.132812 562.816406 1286.757812 528.613281 1296.597656 493.007812 C 1303.894531 468.613281 1305.859375 461.125 1306.222656 459.125 C 1306.382812 458.257812 1306.734375 456.597656 1307.308594 454.035156 L 1307.359375 453.839844 C 1315.726562 423.054688 1317.945312 413.808594 1318.335938 411.480469 C 1318.800781 408.710938 1321.140625 397.453125 1325.933594 374.960938 C 1328.949219 360.808594 1332.632812 343.648438 1336.546875 325.363281 C 1347.144531 275.964844 1359.160156 219.988281 1364.941406 191.386719 C 1365.832031 181.554688 1366.699219 170.710938 1367.613281 159.21875 C 1369.773438 132.289062 1372.003906 104.441406 1374.957031 82.753906 C 1375.164062 81.253906 1375.652344 80.09375 1376.007812 79.242188 C 1376.164062 78.863281 1376.3125 78.53125 1376.371094 78.277344 C 1381.554688 58.992188 1399.621094 52.285156 1414.195312 54.199219 C 1430.066406 56.296875 1440.726562 67.09375 1440.726562 81.058594 L 1440.726562 631.71875 C 1440.726562 668.277344 1423.539062 696.816406 1391.035156 714.285156 C 1366.859375 727.277344 1343.011719 729.496094 1342.011719 729.582031 L 1338.449219 729.886719 " fill-opacity="1" fill-rule="nonzero"/><path fill="#000000" d="M 1345.414062 434.105469 C 1345.195312 434.105469 1344.9375 434.082031 1344.707031 434.058594 C 1342.742188 433.703125 1341.460938 431.960938 1341.828125 430.179688 C 1342.085938 429.082031 1366.234375 320.242188 1373.445312 279.171875 C 1380.582031 238.371094 1399.765625 221.378906 1434.75 223.820312 C 1436.773438 223.976562 1438.25 225.5625 1438.105469 227.367188 C 1437.933594 229.160156 1436.203125 230.550781 1434.175781 230.394531 C 1403.304688 227.878906 1387.167969 243.019531 1380.628906 280.195312 C 1373.421875 321.398438 1349.246094 430.359375 1349.011719 431.472656 C 1348.648438 433.03125 1347.132812 434.105469 1345.414062 434.105469 " fill-opacity="1" fill-rule="nonzero"/><path fill="#2e1e19" d="M 1278.679688 565.792969 L 1367.40625 797.058594 C 1369.152344 801.609375 1365.785156 806.511719 1360.90625 806.511719 L 1061.210938 806.511719 C 1057.355469 806.511719 1054.246094 803.390625 1054.246094 799.546875 L 1054.246094 637.625 C 1054.246094 634.621094 1056.171875 631.953125 1059.027344 631.011719 L 1270.007812 561.667969 C 1273.535156 560.511719 1277.351562 562.328125 1278.679688 565.792969 " fill-opacity="1" fill-rule="nonzero"/><g clip-path="url(#f8c348e522)"><path fill="#000000" d="M 1272.191406 564.621094 C 1271.800781 564.621094 1271.421875 564.679688 1271.046875 564.804688 L 1060.0625 634.148438 C 1058.5625 634.648438 1057.550781 636.039062 1057.550781 637.625 L 1057.550781 799.546875 C 1057.550781 801.558594 1059.183594 803.207031 1061.210938 803.207031 L 1360.90625 803.207031 C 1362.125 803.207031 1363.234375 802.621094 1363.917969 801.621094 C 1364.613281 800.609375 1364.761719 799.375 1364.320312 798.242188 L 1275.59375 566.976562 C 1275.046875 565.523438 1273.65625 564.621094 1272.191406 564.621094 Z M 1360.90625 809.816406 L 1061.210938 809.816406 C 1055.550781 809.816406 1050.941406 805.207031 1050.941406 799.546875 L 1050.941406 637.625 C 1050.941406 633.171875 1053.78125 629.253906 1058 627.878906 L 1268.984375 558.535156 C 1274.179688 556.8125 1279.804688 559.484375 1281.765625 564.609375 L 1370.492188 795.875 C 1371.699219 799.023438 1371.285156 802.570312 1369.371094 805.363281 C 1367.457031 808.144531 1364.296875 809.816406 1360.90625 809.816406 " fill-opacity="1" fill-rule="nonzero"/></g><path fill="#000000" d="M 1466.9375 53.882812 C 1474.613281 53.882812 1482.722656 56.210938 1489.140625 61.371094 C 1488.25 51.40625 1487.40625 43.320312 1486.539062 36.257812 C 1484.527344 19.910156 1472.878906 14.789062 1463.535156 15.363281 C 1454.582031 15.910156 1444.945312 21.777344 1444.945312 33.339844 L 1444.945312 61.273438 C 1449.410156 57.601562 1455.265625 55.101562 1462.085938 54.199219 C 1463.671875 53.992188 1465.292969 53.882812 1466.9375 53.882812 Z M 1444.945312 81.070312 L 1435.554688 81.070312 L 1435.554688 33.339844 C 1435.554688 16.484375 1449.351562 6.824219 1462.960938 5.980469 C 1477.453125 5.117188 1493.238281 13.75 1495.859375 35.097656 C 1497.238281 46.222656 1498.53125 59.796875 1500.042969 79.117188 L 1490.835938 80.703125 C 1487.101562 66.8125 1474.332031 62.066406 1463.316406 63.519531 C 1454.167969 64.726562 1444.945312 70.617188 1444.945312 81.070312 " fill-opacity="1" fill-rule="nonzero"/><path fill="#000000" d="M 1467.132812 63.261719 C 1465.839844 63.261719 1464.574219 63.347656 1463.316406 63.519531 C 1454.167969 64.726562 1444.945312 70.617188 1444.945312 81.058594 L 1444.945312 631.71875 C 1444.945312 664.96875 1459.914062 689.914062 1489.445312 705.867188 C 1506.738281 715.222656 1524.292969 718.664062 1531.585938 719.761719 L 1589.792969 564.230469 C 1587.828125 557.277344 1579.316406 526.941406 1570.617188 495.507812 C 1564.640625 475.492188 1561.433594 464.113281 1560.824219 460.820312 C 1560.75 460.417969 1560.507812 459.257812 1559.824219 456.195312 C 1552.945312 430.886719 1549.308594 416.761719 1548.6875 413.015625 C 1548.113281 409.625 1544.113281 390.792969 1541.160156 376.910156 C 1538.136719 362.726562 1534.441406 345.515625 1530.511719 327.179688 C 1519.890625 277.660156 1507.851562 221.539062 1502.082031 192.996094 L 1502.007812 192.484375 C 1501.105469 182.542969 1500.226562 171.578125 1499.300781 159.964844 C 1497.152344 133.167969 1494.933594 105.453125 1492.003906 84.035156 C 1491.96875 83.753906 1491.835938 83.425781 1491.601562 82.875 C 1491.359375 82.289062 1491.066406 81.570312 1490.835938 80.703125 C 1487.527344 68.398438 1477.113281 63.261719 1467.132812 63.261719 Z M 1537.832031 729.886719 L 1534.269531 729.582031 C 1533.269531 729.496094 1509.421875 727.277344 1485.246094 714.285156 C 1452.742188 696.816406 1435.554688 668.277344 1435.554688 631.71875 L 1435.554688 81.058594 C 1435.554688 67.09375 1446.214844 56.296875 1462.085938 54.199219 C 1476.671875 52.285156 1494.726562 58.992188 1499.910156 78.277344 C 1499.96875 78.53125 1500.117188 78.863281 1500.273438 79.242188 C 1500.628906 80.09375 1501.117188 81.253906 1501.324219 82.765625 C 1504.277344 104.441406 1506.507812 132.289062 1508.667969 159.21875 C 1509.582031 170.710938 1510.449219 181.554688 1511.339844 191.386719 C 1517.121094 219.953125 1529.109375 275.867188 1539.699219 325.207031 C 1543.625 343.539062 1547.320312 360.773438 1550.347656 374.960938 C 1555.140625 397.453125 1557.496094 408.710938 1557.945312 411.480469 C 1558.335938 413.808594 1560.554688 423.042969 1568.921875 453.839844 L 1568.972656 454.035156 C 1569.535156 456.539062 1569.898438 458.246094 1570.058594 459.109375 C 1570.4375 461.125 1572.398438 468.625 1579.644531 492.921875 C 1589.523438 528.613281 1599.148438 562.816406 1599.246094 563.15625 L 1599.660156 564.644531 L 1537.832031 729.886719 " fill-opacity="1" fill-rule="nonzero"/><path fill="#000000" d="M 1530.867188 434.105469 C 1531.085938 434.105469 1531.34375 434.082031 1531.574219 434.058594 C 1533.539062 433.703125 1534.832031 431.960938 1534.453125 430.179688 C 1534.195312 429.082031 1510.046875 320.242188 1502.835938 279.171875 C 1495.714844 238.371094 1476.515625 221.378906 1441.53125 223.820312 C 1439.507812 223.976562 1438.03125 225.5625 1438.175781 227.367188 C 1438.347656 229.160156 1440.082031 230.550781 1442.105469 230.394531 C 1472.988281 227.878906 1489.113281 243.019531 1495.652344 280.195312 C 1502.859375 321.398438 1527.035156 430.359375 1527.269531 431.472656 C 1527.632812 433.03125 1529.148438 434.105469 1530.867188 434.105469 " fill-opacity="1" fill-rule="nonzero"/></svg>