<svg xmlns="http://www.w3.org/2000/svg" xmlns:xlink="http://www.w3.org/1999/xlink" width="1920" zoomAndPan="magnify" viewBox="0 0 1440 809.999993" height="1080" preserveAspectRatio="xMidYMid meet" version="1.0"><defs><clipPath id="af3e7bd0ac"><path d="M 1051.640625 558 L 1372 558 L 1372 809.816406 L 1051.640625 809.816406 Z M 1051.640625 558 " clip-rule="nonzero"/></clipPath></defs><path fill="#a46d4e" d="M 1385.78125 35.671875 C 1384.207031 48.453125 1382.855469 63.726562 1381.621094 79.496094 C 1389.90625 48.601562 1436.730469 54.296875 1436.730469 81.070312 C 1436.730469 52.625 1436.730469 34.730469 1436.730469 33.339844 C 1436.730469 5.394531 1390.183594 -0.0429688 1385.78125 35.671875 " fill-opacity="1" fill-rule="nonzero"/><path fill="#000000" d="M 1412.042969 15.324219 C 1402.96875 15.324219 1392.355469 20.714844 1390.441406 36.257812 C 1389.574219 43.320312 1388.734375 51.40625 1387.84375 61.371094 C 1395.636719 55.101562 1405.921875 53.015625 1414.898438 54.199219 C 1421.714844 55.101562 1427.570312 57.601562 1432.035156 61.273438 L 1432.035156 33.339844 C 1432.035156 21.777344 1422.398438 15.910156 1413.445312 15.363281 C 1412.980469 15.335938 1412.519531 15.324219 1412.042969 15.324219 Z M 1441.425781 81.070312 L 1432.035156 81.070312 C 1432.035156 70.617188 1422.8125 64.726562 1413.664062 63.519531 C 1402.664062 62.066406 1389.878906 66.8125 1386.160156 80.703125 L 1376.9375 79.117188 C 1378.449219 59.808594 1379.742188 46.222656 1381.121094 35.097656 C 1383.746094 13.75 1399.539062 5.089844 1414.019531 5.980469 C 1427.632812 6.824219 1441.425781 16.484375 1441.425781 33.339844 L 1441.425781 81.070312 " fill-opacity="1" fill-rule="nonzero"/><path fill="#a46d4e" d="M 1381.621094 79.496094 C 1381.246094 80.863281 1380.523438 81.875 1380.316406 83.398438 C 1376.097656 114.371094 1373.242188 159.476562 1370.304688 192.054688 C 1362.375 231.296875 1342.308594 323.972656 1331.222656 375.933594 C 1327.074219 395.390625 1324.160156 409.273438 1323.671875 412.246094 C 1323 416.261719 1318.4375 433.542969 1312.597656 455.074219 C 1312.070312 457.414062 1311.691406 459.148438 1311.535156 459.964844 C 1310.902344 463.417969 1307.023438 476.871094 1301.835938 494.265625 C 1291.859375 530.296875 1282.261719 564.4375 1282.261719 564.4375 L 1342.296875 724.898438 C 1342.296875 724.898438 1436.730469 716.613281 1436.730469 631.71875 C 1436.730469 631.71875 1436.730469 222.695312 1436.730469 81.070312 C 1436.730469 54.296875 1389.90625 48.601562 1381.621094 79.496094 " fill-opacity="1" fill-rule="nonzero"/><path fill="#000000" d="M 1287.1875 564.230469 L 1345.394531 719.761719 C 1352.691406 718.664062 1370.242188 715.222656 1387.550781 705.867188 C 1417.070312 689.914062 1432.035156 664.96875 1432.035156 631.71875 L 1432.035156 81.058594 C 1432.035156 70.617188 1422.8125 64.726562 1413.664062 63.519531 C 1402.664062 62.066406 1389.878906 66.824219 1386.160156 80.703125 C 1385.914062 81.570312 1385.625 82.289062 1385.378906 82.875 C 1385.148438 83.425781 1385.011719 83.753906 1384.976562 84.035156 C 1382.050781 105.441406 1379.828125 133.167969 1377.683594 159.964844 C 1376.753906 171.578125 1375.878906 182.542969 1374.988281 192.484375 L 1374.902344 192.996094 C 1369.132812 221.574219 1357.070312 277.769531 1346.445312 327.339844 C 1342.515625 345.613281 1338.832031 362.773438 1335.820312 376.910156 C 1332.867188 390.792969 1328.867188 409.625 1328.292969 413.015625 C 1327.671875 416.773438 1324.023438 430.898438 1317.15625 456.195312 C 1316.5 459.125 1316.253906 460.332031 1316.15625 460.832031 C 1315.78125 462.917969 1314.339844 468.808594 1306.339844 495.605469 C 1297.667969 526.953125 1289.152344 557.277344 1287.1875 564.230469 Z M 1339.148438 729.886719 L 1277.320312 564.644531 L 1277.734375 563.15625 C 1277.832031 562.816406 1287.457031 528.613281 1297.300781 493.007812 C 1304.59375 468.613281 1306.558594 461.125 1306.925781 459.125 C 1307.082031 458.257812 1307.4375 456.597656 1308.007812 454.035156 L 1308.058594 453.839844 C 1316.425781 423.054688 1318.644531 413.808594 1319.035156 411.480469 C 1319.5 408.710938 1321.839844 397.453125 1326.636719 374.960938 C 1329.648438 360.808594 1333.332031 343.648438 1337.246094 325.363281 C 1347.847656 275.964844 1359.863281 219.988281 1365.644531 191.386719 C 1366.535156 181.554688 1367.398438 170.710938 1368.316406 159.21875 C 1370.472656 132.289062 1372.707031 104.441406 1375.65625 82.753906 C 1375.863281 81.253906 1376.351562 80.09375 1376.707031 79.242188 C 1376.863281 78.863281 1377.011719 78.53125 1377.074219 78.277344 C 1382.257812 58.992188 1400.320312 52.285156 1414.898438 54.199219 C 1430.765625 56.296875 1441.425781 67.09375 1441.425781 81.058594 L 1441.425781 631.71875 C 1441.425781 668.277344 1424.242188 696.816406 1391.734375 714.285156 C 1367.558594 727.277344 1343.710938 729.496094 1342.710938 729.582031 L 1339.148438 729.886719 " fill-opacity="1" fill-rule="nonzero"/><path fill="#000000" d="M 1346.113281 434.105469 C 1345.894531 434.105469 1345.640625 434.082031 1345.40625 434.058594 C 1343.445312 433.703125 1342.164062 431.960938 1342.527344 430.179688 C 1342.785156 429.082031 1366.9375 320.242188 1374.144531 279.171875 C 1381.28125 238.371094 1400.46875 221.378906 1435.449219 223.820312 C 1437.476562 223.976562 1438.949219 225.5625 1438.804688 227.367188 C 1438.632812 229.160156 1436.902344 230.550781 1434.878906 230.394531 C 1404.003906 227.878906 1387.867188 243.019531 1381.328125 280.195312 C 1374.121094 321.398438 1349.945312 430.359375 1349.714844 431.472656 C 1349.347656 433.03125 1347.835938 434.105469 1346.113281 434.105469 " fill-opacity="1" fill-rule="nonzero"/><path fill="#683f2b" d="M 1279.382812 565.792969 L 1368.105469 797.058594 C 1369.851562 801.609375 1366.484375 806.511719 1361.605469 806.511719 L 1061.910156 806.511719 C 1058.054688 806.511719 1054.945312 803.390625 1054.945312 799.546875 L 1054.945312 637.625 C 1054.945312 634.621094 1056.871094 631.953125 1059.726562 631.011719 L 1270.710938 561.667969 C 1274.234375 560.511719 1278.050781 562.328125 1279.382812 565.792969 " fill-opacity="1" fill-rule="nonzero"/><g clip-path="url(#af3e7bd0ac)"><path fill="#000000" d="M 1272.894531 564.621094 C 1272.503906 564.621094 1272.125 564.679688 1271.746094 564.804688 L 1060.765625 634.148438 C 1059.261719 634.648438 1058.25 636.039062 1058.25 637.625 L 1058.25 799.546875 C 1058.25 801.558594 1059.886719 803.207031 1061.910156 803.207031 L 1361.605469 803.207031 C 1362.824219 803.207031 1363.9375 802.621094 1364.617188 801.621094 C 1365.3125 800.609375 1365.460938 799.375 1365.019531 798.242188 L 1276.296875 566.976562 C 1275.746094 565.523438 1274.355469 564.621094 1272.894531 564.621094 Z M 1361.605469 809.816406 L 1061.910156 809.816406 C 1056.25 809.816406 1051.640625 805.207031 1051.640625 799.546875 L 1051.640625 637.625 C 1051.640625 633.171875 1054.480469 629.253906 1058.703125 627.878906 L 1269.683594 558.535156 C 1274.882812 556.8125 1280.503906 559.484375 1282.46875 564.609375 L 1371.191406 795.875 C 1372.402344 799.023438 1371.984375 802.570312 1370.070312 805.363281 C 1368.15625 808.144531 1364.996094 809.816406 1361.605469 809.816406 " fill-opacity="1" fill-rule="nonzero"/></g><path fill="#000000" d="M 1467.640625 53.882812 C 1475.3125 53.882812 1483.421875 56.210938 1489.839844 61.371094 C 1488.949219 51.40625 1488.109375 43.320312 1487.242188 36.257812 C 1485.230469 19.910156 1473.582031 14.789062 1464.238281 15.363281 C 1455.285156 15.910156 1445.648438 21.777344 1445.648438 33.339844 L 1445.648438 61.273438 C 1450.113281 57.601562 1455.964844 55.101562 1462.785156 54.199219 C 1464.371094 53.992188 1465.992188 53.882812 1467.640625 53.882812 Z M 1445.648438 81.070312 L 1436.253906 81.070312 L 1436.253906 33.339844 C 1436.253906 16.484375 1450.050781 6.824219 1463.664062 5.980469 C 1478.152344 5.117188 1493.9375 13.75 1496.558594 35.097656 C 1497.9375 46.222656 1499.230469 59.796875 1500.746094 79.117188 L 1491.535156 80.703125 C 1487.800781 66.8125 1475.03125 62.066406 1464.015625 63.519531 C 1454.867188 64.726562 1445.648438 70.617188 1445.648438 81.070312 " fill-opacity="1" fill-rule="nonzero"/><path fill="#000000" d="M 1467.835938 63.261719 C 1466.542969 63.261719 1465.273438 63.347656 1464.015625 63.519531 C 1454.867188 64.726562 1445.648438 70.617188 1445.648438 81.058594 L 1445.648438 631.71875 C 1445.648438 664.96875 1460.613281 689.914062 1490.144531 705.867188 C 1507.441406 715.222656 1524.992188 718.664062 1532.289062 719.761719 L 1590.496094 564.230469 C 1588.53125 557.277344 1580.015625 526.941406 1571.320312 495.507812 C 1565.34375 475.492188 1562.136719 464.113281 1561.523438 460.820312 C 1561.453125 460.417969 1561.207031 459.257812 1560.523438 456.195312 C 1553.644531 430.886719 1550.011719 416.761719 1549.386719 413.015625 C 1548.816406 409.625 1544.8125 390.792969 1541.863281 376.910156 C 1538.835938 362.726562 1535.140625 345.515625 1531.214844 327.179688 C 1520.589844 277.660156 1508.550781 221.539062 1502.78125 192.996094 L 1502.707031 192.484375 C 1501.804688 182.542969 1500.925781 171.578125 1500 159.964844 C 1497.851562 133.167969 1495.632812 105.453125 1492.707031 84.035156 C 1492.667969 83.753906 1492.535156 83.425781 1492.304688 82.875 C 1492.058594 82.289062 1491.765625 81.570312 1491.535156 80.703125 C 1488.230469 68.398438 1477.8125 63.261719 1467.835938 63.261719 Z M 1538.53125 729.886719 L 1534.972656 729.582031 C 1533.96875 729.496094 1510.125 727.277344 1485.949219 714.285156 C 1453.441406 696.816406 1436.253906 668.277344 1436.253906 631.71875 L 1436.253906 81.058594 C 1436.253906 67.09375 1446.917969 56.296875 1462.785156 54.199219 C 1477.375 52.285156 1495.425781 58.992188 1500.609375 78.277344 C 1500.671875 78.53125 1500.816406 78.863281 1500.976562 79.242188 C 1501.328125 80.09375 1501.816406 81.253906 1502.023438 82.765625 C 1504.976562 104.441406 1507.207031 132.289062 1509.367188 159.21875 C 1510.28125 170.710938 1511.148438 181.554688 1512.039062 191.386719 C 1517.820312 219.953125 1529.8125 275.867188 1540.398438 325.207031 C 1544.328125 343.539062 1548.023438 360.773438 1551.046875 374.960938 C 1555.839844 397.453125 1558.195312 408.710938 1558.644531 411.480469 C 1559.035156 413.808594 1561.257812 423.042969 1569.625 453.839844 L 1569.671875 454.035156 C 1570.234375 456.539062 1570.601562 458.246094 1570.757812 459.109375 C 1571.136719 461.125 1573.101562 468.625 1580.347656 492.921875 C 1590.226562 528.613281 1599.851562 562.816406 1599.949219 563.15625 L 1600.363281 564.644531 L 1538.53125 729.886719 " fill-opacity="1" fill-rule="nonzero"/><path fill="#000000" d="M 1531.566406 434.105469 C 1531.789062 434.105469 1532.042969 434.082031 1532.273438 434.058594 C 1534.238281 433.703125 1535.53125 431.960938 1535.152344 430.179688 C 1534.898438 429.082031 1510.746094 320.242188 1503.539062 279.171875 C 1496.414062 238.371094 1477.214844 221.378906 1442.230469 223.820312 C 1440.207031 223.976562 1438.730469 225.5625 1438.878906 227.367188 C 1439.046875 229.160156 1440.78125 230.550781 1442.804688 230.394531 C 1473.691406 227.878906 1489.816406 243.019531 1496.351562 280.195312 C 1503.5625 321.398438 1527.738281 430.359375 1527.96875 431.472656 C 1528.335938 433.03125 1529.847656 434.105469 1531.566406 434.105469 " fill-opacity="1" fill-rule="nonzero"/></svg>