<svg xmlns="http://www.w3.org/2000/svg" xmlns:xlink="http://www.w3.org/1999/xlink" width="1920" zoomAndPan="magnify" viewBox="0 0 1440 809.999993" height="1080" preserveAspectRatio="xMidYMid meet" version="1.0"><defs><clipPath id="f8f466e0ba"><path d="M 68 558 L 388.351562 558 L 388.351562 809.816406 L 68 809.816406 Z M 68 558 " clip-rule="nonzero"/></clipPath></defs><path fill="#a46d4e" d="M 54.207031 35.671875 C 55.78125 48.453125 57.136719 63.726562 58.367188 79.496094 C 50.085938 48.601562 3.257812 54.296875 3.257812 81.070312 C 3.257812 52.625 3.257812 34.730469 3.257812 33.339844 C 3.257812 5.394531 49.804688 -0.0429688 54.207031 35.671875 " fill-opacity="1" fill-rule="nonzero"/><path fill="#000000" d="M 27.945312 15.324219 C 37.023438 15.324219 47.632812 20.714844 49.546875 36.257812 C 50.414062 43.320312 51.257812 51.40625 52.148438 61.371094 C 44.351562 55.101562 34.070312 53.015625 25.09375 54.199219 C 18.273438 55.101562 12.417969 57.601562 7.953125 61.273438 L 7.953125 33.339844 C 7.953125 21.777344 17.589844 15.910156 26.542969 15.363281 C 27.007812 15.335938 27.472656 15.324219 27.945312 15.324219 Z M -1.4375 81.070312 L 7.953125 81.070312 C 7.953125 70.617188 17.175781 64.726562 26.324219 63.519531 C 37.328125 62.066406 50.109375 66.8125 53.828125 80.703125 L 63.050781 79.117188 C 61.539062 59.808594 60.246094 46.222656 58.867188 35.097656 C 56.246094 13.75 40.449219 5.089844 25.96875 5.980469 C 12.359375 6.824219 -1.4375 16.484375 -1.4375 33.339844 L -1.4375 81.070312 " fill-opacity="1" fill-rule="nonzero"/><path fill="#a46d4e" d="M 58.367188 79.496094 C 58.746094 80.863281 59.464844 81.875 59.671875 83.398438 C 63.894531 114.371094 66.746094 159.476562 69.6875 192.054688 C 77.617188 231.296875 97.679688 323.972656 108.769531 375.933594 C 112.914062 395.390625 115.832031 409.273438 116.320312 412.246094 C 116.988281 416.261719 121.550781 433.542969 127.394531 455.074219 C 127.917969 457.414062 128.296875 459.148438 128.453125 459.964844 C 129.089844 463.417969 132.96875 476.871094 138.152344 494.265625 C 148.128906 530.296875 157.730469 564.4375 157.730469 564.4375 L 97.691406 724.898438 C 97.691406 724.898438 3.257812 716.613281 3.257812 631.71875 C 3.257812 631.71875 3.257812 222.695312 3.257812 81.070312 C 3.257812 54.296875 50.085938 48.601562 58.367188 79.496094 " fill-opacity="1" fill-rule="nonzero"/><path fill="#000000" d="M 152.800781 564.230469 L 94.59375 719.761719 C 87.300781 718.664062 69.746094 715.222656 52.4375 705.867188 C 22.921875 689.914062 7.953125 664.96875 7.953125 631.71875 L 7.953125 81.058594 C 7.953125 70.617188 17.175781 64.726562 26.324219 63.519531 C 37.328125 62.066406 50.109375 66.824219 53.828125 80.703125 C 54.074219 81.570312 54.367188 82.289062 54.609375 82.875 C 54.84375 83.425781 54.976562 83.753906 55.011719 84.035156 C 57.941406 105.441406 60.160156 133.167969 62.308594 159.964844 C 63.234375 171.578125 64.113281 182.542969 65.003906 192.484375 L 65.089844 192.996094 C 70.859375 221.574219 82.921875 277.769531 93.546875 327.339844 C 97.472656 345.613281 101.15625 362.773438 104.167969 376.910156 C 107.121094 390.792969 111.121094 409.625 111.695312 413.015625 C 112.316406 416.773438 115.964844 430.898438 122.832031 456.195312 C 123.492188 459.125 123.734375 460.332031 123.832031 460.832031 C 124.210938 462.917969 125.648438 468.808594 133.652344 495.605469 C 142.324219 526.953125 150.835938 557.277344 152.800781 564.230469 Z M 100.839844 729.886719 L 162.667969 564.644531 L 162.253906 563.15625 C 162.15625 562.816406 152.53125 528.613281 142.691406 493.007812 C 135.394531 468.613281 133.429688 461.125 133.066406 459.125 C 132.90625 458.257812 132.554688 456.597656 131.980469 454.035156 L 131.929688 453.839844 C 123.5625 423.054688 121.34375 413.808594 120.953125 411.480469 C 120.488281 408.710938 118.148438 397.453125 113.355469 374.960938 C 110.339844 360.808594 106.65625 343.648438 102.742188 325.363281 C 92.144531 275.964844 80.128906 219.988281 74.347656 191.386719 C 73.457031 181.554688 72.589844 170.710938 71.675781 159.21875 C 69.515625 132.289062 67.285156 104.441406 64.332031 82.753906 C 64.125 81.253906 63.636719 80.09375 63.28125 79.242188 C 63.125 78.863281 62.976562 78.53125 62.917969 78.277344 C 57.734375 58.992188 39.667969 52.285156 25.09375 54.199219 C 9.222656 56.296875 -1.4375 67.09375 -1.4375 81.058594 L -1.4375 631.71875 C -1.4375 668.277344 15.75 696.816406 48.253906 714.285156 C 72.429688 727.277344 96.277344 729.496094 97.277344 729.582031 L 100.839844 729.886719 " fill-opacity="1" fill-rule="nonzero"/><path fill="#000000" d="M 93.875 434.105469 C 94.09375 434.105469 94.351562 434.082031 94.582031 434.058594 C 96.546875 433.703125 97.828125 431.960938 97.460938 430.179688 C 97.203125 429.082031 73.054688 320.242188 65.84375 279.171875 C 58.710938 238.371094 39.523438 221.378906 4.539062 223.820312 C 2.515625 223.976562 1.039062 225.5625 1.183594 227.367188 C 1.355469 229.160156 3.085938 230.550781 5.113281 230.394531 C 35.984375 227.878906 52.121094 243.019531 58.660156 280.195312 C 65.867188 321.398438 90.042969 430.359375 90.277344 431.472656 C 90.640625 433.03125 92.15625 434.105469 93.875 434.105469 " fill-opacity="1" fill-rule="nonzero"/><path fill="#683f2b" d="M 160.609375 565.792969 L 71.882812 797.058594 C 70.136719 801.609375 73.503906 806.511719 78.382812 806.511719 L 378.078125 806.511719 C 381.933594 806.511719 385.042969 803.390625 385.042969 799.546875 L 385.042969 637.625 C 385.042969 634.621094 383.117188 631.953125 380.261719 631.011719 L 169.28125 561.667969 C 165.753906 560.511719 161.9375 562.328125 160.609375 565.792969 " fill-opacity="1" fill-rule="nonzero"/><g clip-path="url(#f8f466e0ba)"><path fill="#000000" d="M 167.097656 564.621094 C 167.488281 564.621094 167.867188 564.679688 168.242188 564.804688 L 379.226562 634.148438 C 380.726562 634.648438 381.738281 636.039062 381.738281 637.625 L 381.738281 799.546875 C 381.738281 801.558594 380.105469 803.207031 378.078125 803.207031 L 78.382812 803.207031 C 77.164062 803.207031 76.054688 802.621094 75.371094 801.621094 C 74.675781 800.609375 74.53125 799.375 74.96875 798.242188 L 163.695312 566.976562 C 164.242188 565.523438 165.632812 564.621094 167.097656 564.621094 Z M 78.382812 809.816406 L 378.078125 809.816406 C 383.738281 809.816406 388.351562 805.207031 388.351562 799.546875 L 388.351562 637.625 C 388.351562 633.171875 385.507812 629.253906 381.289062 627.878906 L 170.304688 558.535156 C 165.109375 556.8125 159.484375 559.484375 157.523438 564.609375 L 68.796875 795.875 C 67.589844 799.023438 68.003906 802.570312 69.917969 805.363281 C 71.832031 808.144531 74.992188 809.816406 78.382812 809.816406 " fill-opacity="1" fill-rule="nonzero"/></g><path fill="#000000" d="M -27.648438 53.882812 C -35.324219 53.882812 -43.433594 56.210938 -49.851562 61.371094 C -48.960938 51.40625 -48.117188 43.320312 -47.25 36.257812 C -45.238281 19.910156 -33.589844 14.789062 -24.246094 15.363281 C -15.292969 15.910156 -5.65625 21.777344 -5.65625 33.339844 L -5.65625 61.273438 C -10.121094 57.601562 -15.976562 55.101562 -22.796875 54.199219 C -24.382812 53.992188 -26.003906 53.882812 -27.648438 53.882812 Z M -5.65625 81.070312 L 3.734375 81.070312 L 3.734375 33.339844 C 3.734375 16.484375 -10.0625 6.824219 -23.671875 5.980469 C -38.164062 5.117188 -53.949219 13.75 -56.570312 35.097656 C -57.949219 46.222656 -59.242188 59.796875 -60.753906 79.117188 L -51.546875 80.703125 C -47.8125 66.8125 -35.042969 62.066406 -24.027344 63.519531 C -14.878906 64.726562 -5.65625 70.617188 -5.65625 81.070312 " fill-opacity="1" fill-rule="nonzero"/><path fill="#000000" d="M -27.84375 63.261719 C -26.550781 63.261719 -25.285156 63.347656 -24.027344 63.519531 C -14.878906 64.726562 -5.65625 70.617188 -5.65625 81.058594 L -5.65625 631.71875 C -5.65625 664.96875 -20.625 689.914062 -50.15625 705.867188 C -67.449219 715.222656 -85.003906 718.664062 -92.296875 719.761719 L -150.503906 564.230469 C -148.539062 557.277344 -140.027344 526.941406 -131.328125 495.507812 C -125.351562 475.492188 -122.144531 464.113281 -121.535156 460.820312 C -121.460938 460.417969 -121.21875 459.257812 -120.535156 456.195312 C -113.65625 430.886719 -110.019531 416.761719 -109.398438 413.015625 C -108.824219 409.625 -104.824219 390.792969 -101.871094 376.910156 C -98.847656 362.726562 -95.152344 345.515625 -91.222656 327.179688 C -80.601562 277.660156 -68.5625 221.539062 -62.792969 192.996094 L -62.71875 192.484375 C -61.816406 182.542969 -60.9375 171.578125 -60.011719 159.964844 C -57.863281 133.167969 -55.644531 105.453125 -52.714844 84.035156 C -52.679688 83.753906 -52.546875 83.425781 -52.3125 82.875 C -52.070312 82.289062 -51.777344 81.570312 -51.546875 80.703125 C -48.238281 68.398438 -37.824219 63.261719 -27.84375 63.261719 Z M -98.542969 729.886719 L -94.980469 729.582031 C -93.980469 729.496094 -70.132812 727.277344 -45.957031 714.285156 C -13.453125 696.816406 3.734375 668.277344 3.734375 631.71875 L 3.734375 81.058594 C 3.734375 67.09375 -6.925781 56.296875 -22.796875 54.199219 C -37.382812 52.285156 -55.4375 58.992188 -60.621094 78.277344 C -60.679688 78.53125 -60.828125 78.863281 -60.984375 79.242188 C -61.339844 80.09375 -61.828125 81.253906 -62.035156 82.765625 C -64.988281 104.441406 -67.21875 132.289062 -69.378906 159.21875 C -70.292969 170.710938 -71.160156 181.554688 -72.050781 191.386719 C -77.832031 219.953125 -89.820312 275.867188 -100.410156 325.207031 C -104.335938 343.539062 -108.03125 360.773438 -111.058594 374.960938 C -115.851562 397.453125 -118.207031 408.710938 -118.65625 411.480469 C -119.046875 413.808594 -121.265625 423.042969 -129.632812 453.839844 L -129.683594 454.035156 C -130.246094 456.539062 -130.609375 458.246094 -130.769531 459.109375 C -131.148438 461.125 -133.109375 468.625 -140.355469 492.921875 C -150.234375 528.613281 -159.859375 562.816406 -159.957031 563.15625 L -160.371094 564.644531 L -98.542969 729.886719 " fill-opacity="1" fill-rule="nonzero"/><path fill="#000000" d="M -91.578125 434.105469 C -91.796875 434.105469 -92.054688 434.082031 -92.285156 434.058594 C -94.25 433.703125 -95.542969 431.960938 -95.164062 430.179688 C -94.90625 429.082031 -70.757812 320.242188 -63.546875 279.171875 C -56.425781 238.371094 -37.226562 221.378906 -2.242188 223.820312 C -0.21875 223.976562 1.257812 225.5625 1.113281 227.367188 C 0.941406 229.160156 -0.789062 230.550781 -2.816406 230.394531 C -33.699219 227.878906 -49.824219 243.019531 -56.363281 280.195312 C -63.570312 321.398438 -87.746094 430.359375 -87.980469 431.472656 C -88.34375 433.03125 -89.859375 434.105469 -91.578125 434.105469 " fill-opacity="1" fill-rule="nonzero"/></svg>